<svg width="788" height="985" xmlns="http://www.w3.org/2000/svg" xmlns:xlink="http://www.w3.org/1999/xlink"
  xmlns:serif="http://www.serif.com/" viewBox="0 0 788 985" version="1.1" xml:space="preserve" style="" x="0px" y="0px"
  fill-rule="evenodd" clip-rule="evenodd" stroke-linejoin="round" stroke-miterlimit="2" fill="white">
  <path
    d="M597.306,231.432c-10.147,-18.594 -27.745,-32.712 -49.378,-36.994c-23.629,-4.691 -45.88,2.209 -62.109,16.021c-12.819,-10.887 -29.387,-17.471 -47.411,-17.471c-7.444,-0 -14.638,1.121 -21.421,3.205l0,-116.06c0,-35.28 -24.258,-67.26 -58.853,-74.123c-0.001,0 -0.002,-0 -0.003,-0c-46.796,-9.277 -88.11,26.818 -88.11,72.04c-0,-0 -0,311.52 -0,311.52l-57.005,-57.011c-27.915,-27.897 -73.409,-28.958 -102.068,-1.805c-0.003,0.003 -0.006,0.005 -0.009,0.008c-27.752,26.317 -35.021,59.81 -12.166,105.532c0.401,0.801 0.843,1.582 1.324,2.338l110.291,173.3c-0,-0 73.571,132.983 73.571,132.983c12.928,23.392 37.556,37.923 64.308,37.923c-0,-0 242.891,-0 242.891,-0c33.714,-0 63.121,-22.957 71.298,-55.664l27.227,-108.9c7.969,-31.925 12.017,-64.731 12.017,-97.645l0,-220.437c0,-35.279 -24.277,-67.261 -58.87,-74.123l-0,-0c-16.349,-3.244 -32.036,-0.942 -45.524,5.363Zm-137.534,33.95c-0.577,-11.268 -9.968,-20.311 -21.364,-20.311c-11.781,-0 -21.421,9.632 -21.421,21.408l0,134.446c0.001,14.373 -11.668,26.042 -26.041,26.042c-14.373,-0 -26.042,-11.669 -26.042,-26.042l0,-320.792c0,-10.65 -6.46,-20.962 -16.903,-23.035c-13.696,-2.714 -25.897,7.716 -25.897,20.952l0,374.396c0,10.533 -6.345,20.029 -16.077,24.06c-9.731,4.03 -20.932,1.801 -28.38,-5.647c0,-0 -101.447,-101.46 -101.447,-101.46c-8.05,-8.044 -21.161,-8.667 -29.427,-0.84c-11.379,10.795 -11,24.733 -1.976,43.304l109.96,172.78c0.287,0.45 0.559,0.909 0.817,1.375l73.964,133.694c3.766,6.814 10.939,11.042 18.729,11.042l242.891,0c9.82,0 18.388,-6.685 20.77,-16.212l27.223,-108.884c6.939,-27.8 10.466,-56.368 10.466,-85.029c-0,0 -0,-220.437 -0,-220.437c-0,-10.653 -6.476,-20.963 -16.922,-23.036l0,0c-13.686,-2.715 -25.895,7.717 -25.895,20.952l0,102.817c0,14.373 -11.669,26.042 -26.042,26.042c-14.372,-0 -26.041,-11.669 -26.041,-26.042l-0,-132.379c-0,-10.638 -6.465,-20.951 -16.904,-23.016c-0.008,-0.002 -0.015,-0.003 -0.023,-0.005c-13.689,-2.721 -25.907,7.72 -25.907,20.954l0,134.446c0,14.373 -11.669,26.042 -26.041,26.042c-14.373,-0 -26.042,-11.669 -26.042,-26.042l0,-134.446l-0.028,-1.097Z" />
</svg>